#tb 0: 1/1000
0,          0,          0,        0,    63630, 5d01848aee2b324f2e356627f9c39532
0,         33,         33,        0,    63630, b671fe34bc0e5a682baff929d26ea627
0,         66,         66,        0,    63630, e9a40f87ca5aaa5af9772e286feb9063
0,        100,        100,        0,    63630, 4730f60d4c856e8ad877c0d8b1729ec4
0,        133,        133,        0,    63630, 317fc01349e0984c23d15f97a3a0f442
0,        166,        166,        0,    63630, aea89116ffe48340d1752d1ad5195529
0,        200,        200,        0,    63630, 14694ba65b6308e5f5571486b62ca1cc
0,        233,        233,        0,    63630, 53c6102d877c9a30eaa20ddc45207ea0
0,        266,        266,        0,    63630, 7d1e898b1bead878224e8ff15d624bd9
0,        300,        300,        0,    63630, 37b684bfae5dbd33e8dbb8332b94ce8a
